<?xml version="1.0" encoding="utf-8"?>
<!-- Generator: Adobe Illustrator 16.0.0, SVG Export Plug-In . SVG Version: 6.00 Build 0)  -->
<!DOCTYPE svg PUBLIC "-//W3C//DTD SVG 1.1//EN" "http://www.w3.org/Graphics/SVG/1.1/DTD/svg11.dtd">
<svg version="1.1" id="レイヤー_1" xmlns="http://www.w3.org/2000/svg" xmlns:xlink="http://www.w3.org/1999/xlink" x="0px"
	 y="0px" width="1920px" height="1080px" viewBox="0 0 1920 1080" enable-background="new 0 0 1920 1080" xml:space="preserve">
<g>
	<path fill="#FF66FF" d="M245.17,470.993v63.84h-99.54v51.24h93.24v61.319h-93.24v123.479H67.51v-299.88L245.17,470.993
		L245.17,470.993z"/>
	<path fill="#FF66FF" d="M373.684,758.692c-0.562-4.2-1.123-8.676-1.68-13.44h-0.84c-4.2,10.08-10.854,17.642-19.95,22.682
		c-9.102,5.04-19.53,7.561-31.29,7.561c-11.483,0-21.21-1.47-29.19-4.41c-7.979-2.938-14.489-7.35-19.529-13.229
		s-8.683-12.875-10.92-21c-2.245-8.117-3.36-17.074-3.36-26.88c0-10.639,1.05-19.878,3.149-27.722
		c2.101-7.835,5.526-14.627,10.29-20.369c4.759-5.734,11.196-10.639,19.32-14.7c8.118-4.057,18.198-7.487,30.24-10.29l29.82-7.141
		c8.118-1.955,13.859-4.83,17.22-8.609s5.04-9.168,5.04-16.17c0-13.998-6.444-21-19.32-21c-7.284,0-12.6,2.033-15.96,6.09
		c-3.359,4.062-5.185,12.114-5.46,24.15h-65.52c0-16.519,2.939-29.748,8.819-39.689c5.88-9.938,13.158-17.641,21.84-23.102
		c8.677-5.459,18.061-9.095,28.141-10.92c10.08-1.817,19.458-2.729,28.14-2.729c13.158,0,25.267,1.051,36.33,3.149
		c11.06,2.101,20.58,5.881,28.562,11.341c7.979,5.46,14.136,12.882,18.479,22.26c4.338,9.385,6.512,21.492,6.512,36.33v110.88
		c0,10.646,0.42,20.021,1.26,28.142c0.84,8.124,2.796,15.119,5.88,21h-73.08C375.22,766.955,374.243,762.893,373.684,758.692z
		 M366.544,716.692c3.636-6.155,5.46-15.54,5.46-28.141v-27.301h-0.84c-2.245,3.084-5.67,4.976-10.29,5.669
		c-4.62,0.703-9.732,2.312-15.33,4.83c-5.88,2.804-9.942,6.512-12.18,11.132c-2.244,4.618-3.36,10.71-3.36,18.271
		s1.68,13.584,5.04,18.061c3.36,4.482,7.835,6.721,13.44,6.721C356.884,725.933,362.903,722.855,366.544,716.692z"/>
	<path fill="#FF66FF" d="M582.424,600.352c-2.802-4.199-7.56-6.3-14.28-6.3c-6.72,0-11.482,2.101-14.279,6.3
		c-2.803,4.2-4.199,11.063-4.199,20.58v149.94h-75.602v-227.22h73.08v27.72h0.842c9.797-22.397,28.14-33.6,55.02-33.6
		c15.678,0,27.648,2.875,35.91,8.608c8.255,5.742,14.766,14.49,19.529,26.25c5.881-12.875,13.927-21.904,24.149-27.09
		c10.218-5.178,21.21-7.77,32.97-7.77c8.4,0,16.172,0.911,23.312,2.729c7.14,1.825,13.368,5.112,18.688,9.87
		c5.315,4.765,9.518,11.063,12.602,18.9c3.078,7.842,4.62,17.922,4.62,30.239v171.36h-75.602V620.931
		c0-9.517-1.403-16.38-4.198-20.579c-2.804-4.2-7.562-6.301-14.28-6.301c-6.72,0-11.484,2.101-14.28,6.301
		c-2.802,4.199-4.2,11.062-4.2,20.579V770.87h-75.6V620.931C586.625,611.417,585.22,604.553,582.424,600.352z"/>
	<path fill="#FF66FF" d="M879.785,470.993v56.28h-75.602v-56.28H879.785z M879.785,543.652v227.221h-75.602V543.652H879.785z"/>
	<path fill="#FF66FF" d="M988.143,470.993v299.88h-75.6v-299.88H988.143z"/>
	<path fill="#FF66FF" d="M1033.92,790.192c2.797,0.275,5.598,0.421,8.4,0.421c4.758,0,8.748-0.703,11.971-2.102
		c3.215-1.403,5.807-3.014,7.77-4.83c1.955-1.823,3.359-3.714,4.199-5.67c0.84-1.962,1.26-3.505,1.26-4.62
		c0-1.681-0.354-3.918-1.049-6.722c-0.703-2.795-1.471-5.732-2.311-8.818l-59.643-214.199h77.701l23.102,153.301h0.84L1128,543.652
		h75.6l-60.896,233.521c-3.361,13.157-7.213,24.006-11.551,32.551c-4.346,8.537-9.521,15.33-15.541,20.37
		c-6.023,5.04-12.953,8.538-20.789,10.5c-7.844,1.956-16.803,2.939-26.881,2.939c-8.125,0-15.611-0.146-22.471-0.42
		c-6.863-0.283-13.512-0.703-19.951-1.262v-52.92C1028.316,789.49,1031.117,789.91,1033.92,790.192z"/>
	<path fill="#FF66FF" d="M1385.037,568.433h-56.281v-48.72c12.035,0,22.398-0.769,31.08-2.311c8.676-1.536,16.098-4.057,22.26-7.562
		c6.156-3.498,11.195-8.256,15.121-14.278c3.918-6.02,7.141-13.368,9.66-22.052h56.279v297.36h-78.119V568.433z"/>
	<path fill="#FF66FF" d="M1601.332,712.912c0.84,3.925,2.238,7.142,4.199,9.66c3.637,5.322,8.959,7.979,15.961,7.979
		c5.879,0,10.984-1.681,15.33-5.04c4.338-3.359,6.51-8.117,6.51-14.279c0-6.721-2.729-11.897-8.188-15.54
		c-5.463-3.637-12.256-6.857-20.371-9.659c-8.125-2.797-16.871-5.736-26.25-8.82c-9.387-3.077-18.135-7.277-26.25-12.6
		c-8.125-5.315-14.91-12.391-20.369-21.21c-5.461-8.82-8.191-20.37-8.191-34.649c0-10.08,1.818-19.387,5.461-27.931
		c3.637-8.538,9.168-16.026,16.592-22.47c7.416-6.438,16.801-11.479,28.141-15.12c11.34-3.636,24.707-5.46,40.109-5.46
		c56.838,0,85.26,23.802,85.26,71.399h-65.521c0-9.799-1.752-16.444-5.25-19.95c-3.504-3.498-8.473-5.25-14.91-5.25
		c-5.604,0-10.225,1.542-13.857,4.62c-3.645,3.084-5.461,7.422-5.461,13.021c0,6.443,2.729,11.273,8.188,14.489
		c5.461,3.223,12.246,6.091,20.371,8.61c8.117,2.521,16.865,5.186,26.25,7.979c9.377,2.802,18.125,6.792,26.25,11.97
		c8.117,5.186,14.91,12.181,20.369,21c5.461,8.82,8.191,20.515,8.191,35.07c0,11.201-2.104,21.42-6.303,30.659
		c-4.197,9.24-10.15,17.222-17.85,23.938c-7.705,6.722-17.221,11.762-28.562,15.121c-11.34,3.358-24.148,5.039-38.43,5.039
		c-31.645,0-54.391-6.3-68.25-18.898c-13.859-12.602-20.791-31.355-20.791-56.28h66.361
		C1600.072,704.795,1600.492,708.994,1601.332,712.912z"/>
	<path fill="#FF66FF" d="M1747.07,543.652v-66.779h75.6v66.78h29.82v50.819h-29.82v108.358c0,6.445,1.471,10.992,4.41,13.65
		c2.941,2.664,7.488,3.989,13.65,3.989h11.76v50.4c-7.002,0-14.004,0.209-21,0.629c-7.002,0.42-13.721,0.632-20.16,0.632
		c-11.484,0-21.281-0.492-29.396-1.472c-8.125-0.979-14.773-3.426-19.951-7.35c-5.186-3.918-8.965-9.728-11.34-17.432
		c-2.385-7.697-3.57-17.85-3.57-30.449V594.473h-25.199v-50.819L1747.07,543.652L1747.07,543.652z"/>
</g>
<g>
	<path fill="#404040" d="M266.699,255.792c-4.8,0-6.24,0.12-9.479,0.6v-8.04c2.88,0.6,5.4,0.72,10.08,0.72h18.239
		c4.56,0,6.959-0.12,9.839-0.72v7.92c-3.12-0.36-5.4-0.48-9.24-0.48h-5.879v28.199h4.8c3.48,0,5.28-0.12,8.04-0.6v7.56
		c-2.76-0.36-5.04-0.479-8.04-0.479h-4.8v30.479c5.879-2.52,7.919-3.48,14.04-6.6l0.479,7.56c-11.759,5.76-14.039,6.72-31.198,13.56
		c-2.76,1.08-3.36,1.32-4.8,2.04l-2.4-8.4c4.44-0.96,8.28-2.16,16.56-5.16v-33.479h-6.36c-3.24,0-5.28,0.12-7.919,0.6v-7.68
		c2.64,0.48,4.439,0.6,8.04,0.6h6.24v-28.199H266.699z M313.617,301.51c-7.56,0-11.52,0.12-14.879,0.48
		c0.24-2.04,0.24-3.24,0.24-4.32c0.12-3.12,0.12-3.12,0.24-9.479v-25.559c0-7.56-0.24-11.52-0.6-15.24c3.6,0.48,7.32,0.6,15.479,0.6
		h31.559c8.4,0,12-0.12,15.359-0.6c-0.36,3.36-0.479,8.04-0.479,15.12v24.119c0,7.799,0.12,12.239,0.479,15.359
		c-4.319-0.36-7.56-0.48-14.399-0.48h-13.679v13.8h17.759c5.88,0,8.52-0.12,11.76-0.6v7.919c-3.36-0.479-6.24-0.6-11.76-0.6h-17.759
		v17.639h22.319c5.76,0,8.52-0.12,11.76-0.6v7.92c-3.48-0.48-6.24-0.6-12-0.6h-53.638c-5.76,0-8.52,0.12-11.879,0.6v-7.92
		c3.12,0.48,5.64,0.6,11.399,0.6h24.959v-17.639h-15.839c-5.76,0-8.4,0.12-11.52,0.6v-7.919c3,0.48,5.52,0.6,11.52,0.6h15.839v-13.8
		H313.617z M306.417,254.592v17.04h19.439v-17.04H306.417z M306.417,277.991v16.919h19.439v-16.919H306.417z M332.937,271.631
		h20.279v-17.04h-20.279V271.631z M332.937,294.91h20.279v-16.919h-20.279V294.91z"/>
	<path fill="#404040" d="M409.378,265.392c5.16,8.279,11.399,14.639,19.439,19.679c-1.68,2.04-2.76,3.6-4.08,6.479
		c-8.28-6.72-11.399-10.439-17.159-19.919c0.479,6.24,0.72,9.839,0.72,14.639v11.04c0,6.6,0.12,9.24,0.72,12.6h-8.399
		c0.6-3.24,0.72-6.12,0.72-12.6v-10.919c0-2.64,0.24-7.439,0.6-14.399c-6.36,12.839-11.399,19.799-21.359,29.759
		c-1.44-2.64-2.76-4.44-4.92-6.36c10.08-8.28,17.759-17.999,23.639-29.999h-10.68c-3.96,0-6.959,0.12-9.24,0.48v-7.56
		c2.28,0.36,5.04,0.48,9.36,0.48h12.599v-6c0-4.92-0.24-7.32-0.72-9.959h8.399c-0.479,2.52-0.6,3.959-0.6,9.12v6.84h9.839
		c3.84,0,6.24-0.12,8.76-0.48v7.56c-2.64-0.36-5.4-0.48-8.64-0.48H409.378z M378.299,340.988c7.8-9.479,10.68-14.999,13.92-26.759
		l6.959,2.88c-4.2,13.199-6.48,17.759-14.279,28.559L378.299,340.988z M415.978,336.068c0,4.56,1.8,5.16,16.199,5.16
		c13.2,0,17.759-0.48,19.679-2.4c1.56-1.32,2.4-5.52,2.64-13.439c2.64,1.56,4.2,2.16,7.56,2.88
		c-1.32,11.279-2.16,14.399-5.04,16.679c-3.24,2.52-8.64,3.24-25.319,3.24c-10.799,0-15.479-0.48-19.079-2.04
		c-3.12-1.44-4.2-3.6-4.2-8.64v-13.439c0-4.2-0.24-7.44-0.72-11.04h9c-0.6,3.48-0.72,5.4-0.72,11.04V336.068z M440.097,331.389
		c-6.12-7.919-10.68-12.6-17.279-17.999l5.28-3.96c6.839,5.28,10.799,9.12,17.639,16.799L440.097,331.389z M465.416,247.272
		c5.28,0,8.4-0.12,12.359-0.48c-0.36,2.52-0.48,6.36-0.48,11.64v38.039c0,4.68,0.24,8.76,0.6,12c-3.48-0.24-8.64-0.48-12.6-0.48
		h-21.959c-4.44,0-8.4,0.12-12.479,0.36c0.36-3.72,0.6-7.56,0.6-11.879v-38.039c0-5.04-0.12-8.64-0.48-11.64
		c3.84,0.36,6.959,0.48,12.239,0.48H465.416z M438.537,265.271h31.559v-11.64h-31.559V265.271z M438.537,283.391h31.559v-11.879
		h-31.559V283.391z M438.537,301.63h31.559v-12h-31.559V301.63z M478.375,344.588c-6-12.24-10.08-18.479-17.52-27.239l6.48-3.6
		c8.04,9.72,12.479,16.08,18,25.919L478.375,344.588z"/>
	<path fill="#404040" d="M542.218,310.149c-6.959,15.84-14.04,23.039-22.679,23.039c-11.399,0-19.919-12.479-19.919-29.278
		c0-12.24,4.56-24.119,12.6-33.119c9.6-10.56,22.679-15.959,38.758-15.959c13.439,0,25.199,4.2,32.999,11.879
		c7.56,7.32,11.64,17.759,11.64,29.279c0,18.599-10.08,33.958-27.479,41.398c-5.4,2.28-9.959,3.72-18.239,5.52
		c-1.2-3.96-1.92-5.16-4.2-8.04c8.76-1.44,14.399-3,20.039-5.64c13.199-6,21.239-18.839,21.239-33.599
		c0-13.68-6.96-24.719-19.079-30.119c-4.44-1.92-7.92-2.76-13.92-3C552.177,279.191,547.618,297.55,542.218,310.149z
		 M527.458,268.271c-12.12,7.319-19.56,20.879-19.56,35.758c0,11.52,5.04,20.399,11.52,20.399c5.04,0,9.84-5.64,15-17.399
		c4.92-11.28,9.36-29.039,10.919-44.398C538.138,263.231,532.978,264.912,527.458,268.271z"/>
	<path fill="#404040" d="M656.579,284.471c10.32,9,17.159,27.239,17.159,45.838c0,7.68-1.2,13.2-3.48,15.959
		c-2.16,2.64-5.279,3.72-11.159,3.72c-3.72,0-8.76-0.36-14.16-0.84c-0.24-3.48-0.72-5.16-1.92-8.04c6,1.2,11.04,1.8,15.479,1.8
		c6.12,0,7.8-2.88,7.8-14.399c0-3.479-0.12-5.52-0.48-9c-12.72,10.439-28.559,18.359-50.638,25.559c-1.56-2.88-2.64-4.44-4.68-6.72
		c21.719-5.52,40.318-14.64,53.878-26.279c-0.96-4.08-1.8-6.479-3.36-10.079c-12.359,8.52-27.119,15.239-44.878,20.399
		c-1.32-2.88-2.4-4.32-4.44-6.6c10.92-2.64,17.52-4.8,27.479-9.12c7.32-3.24,12.6-6.12,18.719-10.439c-2.4-3.84-4.2-6-6.959-8.4
		c-8.88,4.92-17.879,8.52-32.039,12.359c-1.68-3.12-2.4-4.2-4.44-6.36c18.719-4.08,30.479-8.64,41.878-16.439H638.7
		c-4.32,0-8.04,0.24-11.64,0.6v-7.68c3.12,0.479,6.24,0.72,11.64,0.72h50.758c5.64,0,8.76-0.12,11.76-0.72v7.68
		c-3.6-0.36-7.2-0.6-11.76-0.6h-12.959c2.64,10.919,3.84,15,7.199,22.439c8.52-6.24,15.84-13.439,18.359-17.879l6.72,5.52
		c-2.64,2.16-2.64,2.16-7.2,6.479c-3.84,3.72-7.2,6.48-14.639,12.12c7.56,13.319,16.439,21.839,31.679,30.719
		c-2.04,1.8-3.72,3.72-5.88,6.72c-9.84-7.08-14.399-10.919-19.439-16.679c-9-10.08-16.079-23.159-20.519-37.918
		c-0.96-3.12-1.44-5.04-3-11.52h-3.6c-3.48,3-4.8,3.959-8.64,6.479L656.579,284.471z M658.979,249.432c0-2.64-0.24-4.8-0.84-7.44
		h9.359c-0.48,2.64-0.72,4.68-0.72,7.32v3.84h35.519c5.16,0,8.279-0.12,12.119-0.48c-0.36,2.28-0.479,4.32-0.479,7.92v7.439
		c0,3.72,0.12,5.64,0.479,8.16h-7.799v-16.439h-84.836v16.439h-7.8c0.36-2.76,0.48-4.68,0.48-8.28v-7.319c0-3.24-0.12-5.4-0.48-7.92
		c3.84,0.36,6.84,0.48,12,0.48h32.999V249.432z"/>
	<path fill="#404040" d="M749.82,253.992c0-4.44-0.24-7.44-0.72-11.04h8.88c-0.6,3.48-0.72,6.48-0.72,11.04v7.439h6
		c3.959,0,6.959-0.12,10.439-0.6v7.8c-3.12-0.36-5.64-0.48-10.439-0.48H750.9c0,1.92,0,3.36,0,4.32
		c-0.12,4.08-0.12,4.08-0.479,12.24h12.119c3.84,0,6-0.12,8.4-0.48c-0.24,1.92-0.24,2.4-0.48,12.84
		c-0.24,14.279-1.8,31.318-3.6,39.718c-2.04,9.36-3.84,10.919-12.719,10.919c-2.04,0-4.8-0.24-8.52-0.72
		c-0.24-3.24-0.48-5.16-1.2-7.8c3.84,1.08,6.84,1.56,9.72,1.56c4.56,0,5.16-1.08,6.72-10.56c1.68-11.16,2.64-24.719,2.76-38.878
		H750.18c-0.96,14.759-1.56,20.519-3.36,28.679c-2.4,10.56-7.08,20.639-14.16,29.639c-2.28-3.24-3.359-4.439-5.64-6.24
		c9.36-11.759,12.84-20.999,14.76-38.398c1.08-10.2,1.68-20.519,1.92-36.838h-3.72c-4.56,0-7.08,0.12-10.08,0.6v-8.04
		c3.24,0.479,6.12,0.72,10.439,0.72h9.48V253.992z M787.619,264.912c-3.72,7.2-6.84,11.759-12.6,18.479c-1.44-2.04-3.12-3.24-6-4.68
		c8.04-8.52,14.519-19.199,18.119-29.879c0.6-1.8,1.2-3.84,1.32-4.56c0.24-1.56,0.24-1.56,0.36-2.28l8.159,1.68
		c-1.2,2.76-1.2,3-1.8,4.44c-1.8,4.439-2.16,5.399-4.32,9.959h33.599c5.64,0,9.36-0.24,12.24-0.72v8.04
		c-3.48-0.36-7.08-0.48-12-0.48H787.619z M792.178,287.471c-3.12,5.16-5.52,8.16-9.839,12.719c-1.68-1.8-3.12-2.76-5.88-4.2
		c6.84-6.6,10.44-11.52,13.919-19.199c1.44-3.24,2.16-5.64,2.64-8.52l7.439,2.04c-0.6,1.32-2.16,4.8-3.6,8.159
		c-0.36,0.96-0.6,1.32-1.08,2.4h26.399c4.56,0,6.6-0.12,9.479-0.72v7.919c-3-0.479-5.28-0.6-9.72-0.6h-12.479
		c-0.479,11.64-0.6,12.239-1.2,16.919h17.399c4.56,0,7.68-0.24,10.799-0.72v8.16c-3.479-0.48-6.359-0.72-10.799-0.72h-16.08
		c3.24,8.16,5.64,12.24,10.439,17.52c5.64,6.12,10.92,9.6,20.279,13.68c-2.4,2.52-3.479,4.08-4.92,7.319
		c-9.479-4.92-15.719-9.959-21.839-17.639c-4.08-5.04-6-8.52-8.16-14.639c-2.16,6.72-4.56,11.159-8.4,15.959
		c-5.64,6.96-12.239,11.76-22.439,16.439c-1.2-2.76-2.4-4.56-4.56-6.6c10.319-3.72,18.119-9.6,23.759-17.759
		c2.88-4.2,4.68-8.64,6-14.28h-13.439c-4.8,0-7.68,0.12-11.04,0.6v-7.919c3,0.48,5.76,0.6,11.159,0.6h14.52
		c0.84-5.879,1.08-8.759,1.2-16.919H792.178z"/>
	<path fill="#404040" d="M863.82,254.832c-4.919,0-7.2,0.12-10.319,0.6v-8.279c3.48,0.48,6.6,0.72,10.919,0.72h37.679
		c4.439,0,7.319-0.24,10.799-0.72v8.279c-3.12-0.479-5.16-0.6-10.2-0.6h-2.64v29.759h3.72c5.16,0,7.56-0.12,10.56-0.6v8.4
		c-3-0.48-5.52-0.6-10.56-0.6h-3.72v44.998c0,5.64,0.24,9.12,0.72,12.479l-8.879,0.12c0.6-3.96,0.72-7.08,0.72-12.479v-45.118H874.5
		c-0.36,9.839-0.84,15.359-2.04,21.959c-2.76,14.52-7.919,24.959-17.879,36.119c-2.04-2.4-3.24-3.36-6.359-5.4
		c13.079-12.6,18.359-27.479,18.839-52.678h-4.919c-4.44,0-7.8,0.24-10.919,0.72v-8.64c3,0.48,6.239,0.72,10.919,0.72h4.919v-29.759
		H863.82z M874.5,284.591h18.119v-29.759H874.5V284.591z M961.017,309.79c-2.64,2.52-2.64,2.52-8.28,9
		c-5.04,5.88-12.959,12.96-20.399,18.359c-6.959,5.04-12.479,8.28-21.239,12.479c-1.32-2.52-2.52-4.32-4.68-6.959
		c14.64-5.88,27.479-14.879,39.239-27.239c3.48-3.72,6.959-8.4,8.52-11.4L961.017,309.79z M952.617,248.352
		c-1.44,1.2-2.4,2.16-6.24,5.76c-11.879,11.16-20.039,17.16-31.798,23.159c-1.44-2.76-2.52-4.44-4.8-6.84
		c10.56-4.56,18.839-10.2,27.719-18.479c4.8-4.56,6.6-6.48,8.16-8.88L952.617,248.352z M956.937,278.711
		c-1.68,1.32-2.76,2.28-5.04,4.68c-11.28,11.76-22.919,20.52-36.958,27.719c-1.68-3.24-2.76-4.8-4.68-7.08
		c11.64-4.919,20.64-10.799,30.839-20.399c4.08-3.84,7.2-7.44,9.12-10.56L956.937,278.711z"/>
	<path fill="#404040" d="M1068.537,281.951c-0.359,0.6-1.561,3.24-3.6,8.04c-6.84,15.959-9.119,20.279-15.959,29.279
		c3.719,7.56,6.719,11.399,12.119,15.959c2.16,1.68,4.08,2.76,5.16,2.76c1.92,0,3.959-6.239,5.398-17.279
		c2.52,2.52,4.32,3.96,6.48,5.28c-1.561,7.919-2.52,11.159-4.32,14.639c-1.92,3.84-4.32,5.76-7.439,5.76s-7.92-2.76-12.6-7.44
		c-3.6-3.479-6.84-7.919-9.959-13.439c-9.84,10.44-19.439,17.399-33.238,23.879c-1.92-2.88-3.121-4.08-5.881-6.12
		c15-6,25.92-13.56,35.639-24.839c-5.52-12.839-9-29.878-10.199-49.918H987.9c0,10.44-0.12,14.52-0.24,19.559h22.92
		c4.318,0,6.359-0.12,8.998-0.479c-0.359,2.52-0.359,2.52-0.84,13.439c-0.719,13.559-1.92,22.319-3.6,25.799
		c-1.799,3.72-4.439,4.8-11.158,4.8c-4.32,0-7.201-0.24-12.6-1.08c-0.24-3.12-0.48-4.92-1.441-7.8c6.6,1.44,10.201,1.92,14.16,1.92
		s4.92-1.08,5.76-6.359c0.84-5.04,1.439-14.04,1.561-23.52h-24c-0.72,15.359-1.68,24.239-3.84,33.119
		c-2.039,8.52-4.199,13.679-9.119,20.999c-2.16-2.52-3.84-3.96-6.359-5.4c4.439-6.24,6.719-11.28,8.398-18
		c2.641-10.799,3.961-26.999,3.961-50.397c0-8.04-0.121-9.96-0.721-14.04c4.2,0.48,8.52,0.6,14.641,0.6h35.398
		c-0.48-14.76-0.602-16.68-1.201-19.439h9.24c-0.48,2.4-0.6,5.28-0.6,9.84c0,2.16,0,3.959,0.24,9.6h26.158
		c6.719,0,9.84-0.12,12.84-0.72v8.16c-3.721-0.48-7.08-0.6-13.439-0.6h-25.32c0.842,17.16,3.48,31.679,7.92,43.198
		c7.201-10.319,13.439-24.239,14.76-32.999L1068.537,281.951z M1061.938,259.752c-6.721-6.12-9.24-8.04-17.279-12.72l5.16-4.2
		c7.92,4.56,9.359,5.52,17.158,11.879L1061.938,259.752z"/>
	<path fill="#404040" d="M1122.662,261.312c3.959-8.399,5.398-12.6,5.76-16.439l9.6,1.68c-1.08,1.56-1.08,1.56-3.121,6.48
		c-1.561,3.84-3.119,7.08-3.719,8.159c1.439-0.12,1.439-0.12,2.52-0.12c19.199-0.96,31.199-2.4,37.799-4.56l0.719,8.16
		c-1.92,0.12-2.639,0.24-4.799,0.6c-12.48,1.68-25.08,2.64-39.6,3.12c-3.6,7.08-6.6,11.879-10.799,17.039
		c-1.199,1.44-3.6,4.2-4.08,4.56c-0.84,0.6-1.439,1.08-1.561,1.2c0,0.12-0.119,0.12-0.119,0.12c0,0.12,0,0.12,0,0.12
		c0.119,0.24,0.119,0.24,0.24,0.36c4.32-3.36,4.32-3.36,5.52-4.2c5.52-3.84,11.879-5.88,18.119-5.88
		c8.879,0,14.279,4.439,15.84,13.319c8.76-3.48,15.6-6,20.879-7.92c5.879-2.04,6.24-2.16,8.16-3.479l3.84,8.399
		c-6.24,1.08-17.039,4.68-32.039,10.56c0.24,3.12,0.24,4.32,0.24,7.32c0,1.56,0,4.2-0.121,6.6c-0.119,2.64-0.119,4.32-0.119,5.4
		c0,1.68,0,2.64,0.24,4.32l-8.16,0.12c0.359-2.64,0.721-9.959,0.721-17.279c0-1.92,0-2.16-0.121-3.6
		c-16.318,7.68-22.559,13.319-22.559,20.52c0,7.919,7.439,11.399,24.359,11.399c11.879,0,25.199-1.92,32.039-4.68l1.078,9.239
		c-1.799,0.12-2.398,0.24-4.799,0.6c-9.48,1.56-19.92,2.4-29.158,2.4c-21.48,0-31.92-6.12-31.92-18.479
		c0-6.6,4.08-12.839,12.24-18.959c4.08-3,9.84-6.12,17.879-9.6c-0.959-6.6-3.84-9.479-9.479-9.479
		c-7.561,0-17.041,4.439-26.76,12.719c-4.68,3.96-7.32,6.72-9.24,9.959l-6.719-6.72c8.279-6.359,18.238-18.959,26.879-34.318
		c0.359-0.6,0.359-0.6,1.08-1.8c-0.48,0.12-1.68,0.24-2.281,0.24c-1.92,0-13.199-0.24-17.639-0.36c-0.6,0-1.561,0-1.92,0
		c-1.08,0-1.32,0-2.641,0.12l0.121-8.28c4.32,0.84,13.439,1.32,25.68,1.32H1122.662z"/>
	<path fill="#404040" d="M1248.301,252.672c0-4.8-0.24-7.2-0.84-10.439h9.479c-0.6,2.88-0.84,5.52-0.84,10.439v7.32h35.879
		c5.039,0,9-0.24,12.6-0.84v8.64c-3.48-0.48-7.439-0.72-12.6-0.72H1256.1v19.319h16.199c5.279,0,8.16-0.12,10.561-0.6l5.158,5.16
		c-1.439,1.68-2.279,2.88-4.199,5.88c-6.119,9.479-14.158,18.359-23.879,26.519c13.08,8.64,27.119,14.16,46.799,18.239
		c-2.281,3-3.24,4.56-4.561,8.04c-20.158-5.16-34.438-11.52-48.479-21.599c-15.119,10.56-29.758,16.919-48.957,21.119
		c-1.201-3.12-2.279-4.919-4.32-7.56c18.479-3.24,32.879-8.879,47.158-18.359c-5.52-4.56-9.84-9.12-13.799-14.399
		c-3.84-5.04-5.52-7.919-9.121-15.719h-1.559c-5.279,0-9,0.24-12.721,0.72v-8.159c3.121,0.479,7.201,0.72,12.84,0.72h25.08v-19.319
		h-34.08c-5.039,0-8.998,0.24-12.479,0.72v-8.64c3.6,0.6,7.559,0.84,12.6,0.84h33.959V252.672z M1232.941,293.11
		c5.158,11.04,10.439,17.52,20.639,25.799c10.799-8.52,16.439-14.759,23.398-25.799H1232.941z"/>
	<path fill="#404040" d="M1333.381,255.072c0-5.64-0.119-8.64-0.719-12.239h8.879c-0.48,3.12-0.721,6.6-0.721,12.12v11.639h3.721
		c3.119,0,5.16-0.12,7.561-0.48v7.68c-2.641-0.36-4.561-0.48-7.561-0.48h-3.721v21.479c3.84-1.68,5.521-2.52,10.201-5.16l0.359,7.08
		c-4.68,2.52-6.24,3.36-10.561,5.4v39.718c0,6.6-2.398,8.16-12.359,8.16c-2.52,0-3.84,0-7.078-0.24
		c-0.121-2.64-0.602-4.68-1.561-7.439c3.959,0.6,7.68,0.96,10.32,0.96c2.52,0,3.238-0.6,3.238-2.28V305.35
		c-5.039,2.16-5.158,2.28-8.998,3.72c-2.041,0.72-3.24,1.2-5.16,2.16l-2.16-7.919c4.08-0.6,5.879-1.2,16.318-5.4v-24.599h-6.84
		c-2.879,0-5.039,0.12-8.039,0.48v-7.8c2.641,0.48,4.68,0.6,8.039,0.6h6.84V255.072z M1366.621,283.271
		c-4.682,0-8.041,0.12-11.281,0.48v-7.2c2.76,0.48,5.76,0.6,10.801,0.6h34.078c5.76-8.52,9-15,11.639-22.679l7.32,2.52
		c-6.479,12.479-6.959,13.2-11.76,20.159h5.641c5.16,0,7.559-0.12,10.559-0.72v7.32c-3.359-0.36-6.479-0.48-11.158-0.48h-33.479
		c-0.48,5.4-0.602,6.6-1.08,10.2h34.799c6.359,0,9.959-0.24,13.078-0.72v7.799c-3.84-0.479-7.92-0.72-13.078-0.72h-36
		c-0.719,3.6-1.32,5.64-2.279,9h27.479c5.279,0,8.039-0.12,10.08-0.48l3.84,4.92c-0.721,0.84-0.721,0.84-2.881,3.96
		c-2.879,4.32-9.6,11.52-14.758,15.839c9.6,5.28,17.279,8.04,30.238,10.679c-1.801,2.76-2.52,4.2-3.961,7.44
		c-13.678-3.96-22.559-7.8-31.918-13.799c-9.359,6.24-18.119,10.199-30.479,13.56c-1.08-2.76-2.16-4.44-4.199-6.48
		c11.639-2.64,19.318-5.64,28.559-11.399c-6.6-5.16-11.041-9.72-15.24-15.6c-5.76,13.2-12.719,22.679-23.879,32.639
		c-1.32-2.28-2.641-3.72-5.279-5.64c7.92-6.36,12.479-11.52,17.398-19.439c4.801-7.68,8.16-15.84,10.199-25.199h-3.84
		c-5.639,0-8.879,0.12-12.359,0.6v-7.56c3.24,0.48,6.961,0.6,12.48,0.6h4.92c0.48-3.48,0.719-6.12,0.959-10.2H1366.621z
		 M1421.697,249.072c-2.16,0.36-2.16,0.36-6,1.2c-14.758,3.48-39.717,6.24-61.916,6.84c-0.48-3-0.84-3.72-2.52-6.84
		c1.318,0,2.279,0,2.998,0c23.4,0,52.68-3.84,61.918-8.04L1421.697,249.072z M1366.859,276.071c-2.279-6.48-4.078-10.08-7.799-15.24
		l6.119-2.4c3.361,5.04,5.281,8.88,7.439,15L1366.859,276.071z M1377.061,315.069c3.84,5.16,8.639,9.6,14.998,14.16
		c5.881-4.56,9.359-8.28,13.439-14.16H1377.061z M1386.779,274.871c-1.68-6.24-3.6-10.439-6.959-16.439l6.119-1.8
		c3.359,5.76,4.92,9.12,7.08,16.079L1386.779,274.871z"/>
	<path fill="#404040" d="M1493.82,252.672c0-3.12-0.121-4.439-0.48-6.959h9c-0.48,3.84-0.6,5.64-0.6,15v1.32
		c22.678-0.12,31.918-0.36,35.877-0.84v8.52c-4.439-0.48-8.639-0.6-22.918-0.6c-1.801,0-3.119,0-12.84,0.24v23.759
		c2.041,5.04,2.881,8.88,2.881,14.159c0,12.479-5.76,23.52-16.08,31.319c-4.92,3.6-10.199,6.36-18.959,9.72
		c-2.041-3.84-2.76-4.92-5.279-7.56c9.359-3,14.639-5.4,19.438-9c8.76-6.6,12.961-14.399,13.439-25.319
		c-1.078,2.88-1.799,4.2-3.238,5.88c-3.6,4.32-8.76,6.479-15.119,6.479c-11.52,0-19.68-7.919-19.68-18.959
		c0-11.399,9-19.799,21.238-19.799c5.76,0,10.801,1.92,13.92,5.4c-0.119-1.68-0.119-2.16-0.119-6.6c0-0.48-0.121-1.68-0.121-3.12
		c0-1.68,0-1.68,0-6.24c-24.119,0.48-48.357,1.68-56.398,3l-0.359-8.76c2.16,0.12,3,0.12,4.801,0.12c3.479,0,3.479,0,22.799-0.72
		c11.52-0.479,20.879-0.72,29.039-0.96L1493.82,252.672z M1488.66,288.791c-2.279-1.32-4.801-1.92-8.039-1.92
		c-7.561,0-13.32,5.4-13.32,12.6c0,6.959,5.039,11.879,12.359,11.879c8.279,0,14.039-5.76,14.039-14.159
		C1493.699,293.23,1492.141,290.71,1488.66,288.791z"/>
	<path fill="#404040" d="M1564.504,252.672c3.359,0.6,5.52,0.72,11.279,0.72c9.959,0,25.92-0.72,36.719-1.56
		c3.119-0.24,4.199-0.48,5.76-1.32l5.039,6.6c-1.68,0.84-2.279,1.32-6.119,5.04c-16.559,16.2-31.078,28.679-39.479,34.079l0.24,0.36
		c9.119-4.92,18.84-7.44,29.398-7.44c20.039,0,32.879,9.84,32.879,25.199c0,18.719-17.398,31.079-44.039,31.079
		c-16.918,0-26.639-6.24-26.639-17.279c0-8.04,7.439-14.04,17.4-14.04c8.039,0,14.998,3.48,19.799,9.84
		c2.52,3.36,3.84,6.24,5.52,11.52c12.6-3.48,19.199-10.8,19.199-20.999c0-11.52-9.6-18.359-25.799-18.359
		c-17.639,0-36.598,7.68-50.518,20.519l-5.4-7.68c4.32-2.52,8.641-5.64,16.799-12.24c12.84-10.199,31.799-26.879,40.078-35.038
		c0.721-0.72,0.721-0.72,1.682-1.68c0,0,0.238-0.24,0.479-0.48l0.48-0.48l-0.24-0.24c-0.359,0-0.359,0-1.08,0.12
		c-3.84,0.72-18.238,1.56-36.479,2.16c-2.639,0.12-3.84,0.24-6.479,0.6L1564.504,252.672z M1587.062,320.949
		c-6,0-9.719,2.88-9.719,7.439c0,3.12,1.559,5.4,4.799,7.32c3.121,1.68,8.279,2.76,13.439,2.76c3,0,4.439-0.12,8.76-0.84
		C1601.703,326.709,1595.703,320.949,1587.062,320.949z"/>
</g>
</svg>
